<svg xmlns="http://www.w3.org/2000/svg" viewBox="0 0 122.88 118.3" xml:space="preserve"><path d="M115.5 85.67v11.24h-14.21V85.67zM39.32 53.3v43.61H25.11V53.3zm25.39 12.4v31.21h-14.2V65.7zm25.39 8.14v23.07H75.9V73.84z" style="fill:#6bbe66"/><path d="M12.53 19.38v86.39h108.46v12.53H6.27c-3.46 0-6.27-2.81-6.27-6.27V19.38zm28.13-1.6-1.04 8.14a4.59 4.59 0 0 1-5.12 3.97 4.59 4.59 0 0 1-3.97-5.12l2.65-20.62A4.576 4.576 0 0 1 39.39.31l19.86 7.65c2.36.91 3.53 3.56 2.62 5.92a4.576 4.576 0 0 1-5.92 2.62l-6.78-2.61c7.43 10.08 16.33 18.5 25.94 25.06 13.84 9.45 29.1 15 43.51 16.04 2.53.18 4.43 2.37 4.25 4.9a4.58 4.58 0 0 1-4.9 4.25c-15.99-1.13-32.85-7.23-48.03-17.6-10.92-7.45-20.99-17.13-29.28-28.76" style="fill:#393939"/></svg>