<svg xmlns="http://www.w3.org/2000/svg" viewBox="0 0 122.88 63.59" xml:space="preserve"><path d="M2.54 58.52h12.59c-.93-.24-1.63-1.1-1.63-2.1V2.17C13.5.98 14.48 0 15.67 0h90.97c1.2 0 2.17.98 2.17 2.17v54.24c0 1.01-.69 1.86-1.63 2.1h13.16c1.4 0 2.54 1.14 2.54 2.54s-1.14 2.54-2.54 2.54H2.54c-1.4 0-2.54-1.14-2.54-2.54 0-1.39 1.14-2.53 2.54-2.53m40.84-2.72.22-31.05.41-.84 5.98-12.27.51-1.05.54 1.04L57.4 23.9l.44.86.2 31.05h11.05l2.7-27.49 5.43.32.96 27.17h26.35V4.26H18.07V55.8zm8.48-40.05H49.3l-3.81 7.83h10.43zm22.78 10.83c-4.42-.22-6.18-2-5.37-5.22.19-.76 1.34-3.77.79-6.38-.54-2.56-2.87-4.76-2.81-4.84 4.17 2.79 20.18 15.66 7.39 16.44M57.87 59.47h7.14c.67 0 1.22.55 1.22 1.22s-.55 1.22-1.22 1.22h-7.14c-.67 0-1.22-.55-1.22-1.22 0-.68.55-1.22 1.22-1.22" style="fill-rule:evenodd;clip-rule:evenodd"/></svg>