<svg xmlns="http://www.w3.org/2000/svg" viewBox="0 0 122.88 117.99" xml:space="preserve"><path d="M68.21 3.97c0-2.18 2.15-3.97 4.84-3.97 2.68 0 4.84 1.77 4.84 3.97v17.35c0 2.18-2.15 3.97-4.84 3.97-2.68 0-4.84-1.77-4.84-3.97zM13.17 56.16c-.27 0-.52-1.2-.52-2.68s.22-2.67.52-2.67h13.2c.27 0 .52 1.2.52 2.67 0 1.48-.22 2.68-.52 2.68zm21.04 0c-.27 0-.52-1.2-.52-2.68s.22-2.67.52-2.67h13.2c.27 0 .52 1.2.52 2.67 0 1.48-.22 2.68-.52 2.68zm21.04 0c-.27 0-.52-1.2-.52-2.68s.21-2.67.52-2.67h13.2c.27 0 .52 1.19.52 2.66-1.32.82-2.59 1.72-3.81 2.69zM13.2 71.52c-.27 0-.52-1.2-.52-2.68s.22-2.68.52-2.68h13.2c.27 0 .52 1.2.52 2.68s-.22 2.68-.52 2.68zm21.04 0c-.27 0-.52-1.2-.52-2.68s.22-2.68.52-2.68h13.2c.27 0 .52 1.2.52 2.68s-.22 2.68-.52 2.68zM13.23 86.88c-.27 0-.52-1.2-.52-2.68s.22-2.68.52-2.68h13.2c.27 0 .52 1.2.52 2.68s-.22 2.68-.52 2.68zm21.04 0c-.27 0-.52-1.2-.52-2.68s.22-2.68.52-2.68h13.2c.27 0 .52 1.2.52 2.68s-.22 2.68-.52 2.68zM24.76 3.97C24.76 1.78 26.92 0 29.6 0s4.84 1.77 4.84 3.97v17.35c0 2.18-2.16 3.97-4.84 3.97s-4.84-1.77-4.84-3.97zM5.33 37.93h92.12V17.96c0-.69-.28-1.28-.71-1.72-.44-.44-1.07-.71-1.72-.71h-8.83a2.68 2.68 0 0 1-2.68-2.68c0-1.48 1.21-2.68 2.68-2.68h8.83c2.16 0 4.1.87 5.52 2.29a7.76 7.76 0 0 1 2.29 5.52v31.71c-1.76-.61-3.57-1.1-5.43-1.46v-4.95h.06H5.33V95c0 .69.27 1.28.71 1.72s1.07.71 1.72.71h43.78c.5 1.86 1.13 3.67 1.88 5.42H7.81c-2.15 0-4.1-.87-5.52-2.29A7.72 7.72 0 0 1 0 95.05V17.98c0-2.15.87-4.1 2.29-5.52a7.76 7.76 0 0 1 5.52-2.29h9.43a2.68 2.68 0 0 1 0 5.36H7.81c-.69 0-1.28.27-1.72.71s-.71 1.07-.71 1.72v19.97zm36.84-22.41a2.68 2.68 0 0 1 0-5.36h17.98a2.68 2.68 0 0 1 0 5.36z" style="fill:#393939"/><path d="M91.64 55.53c4.22 0 8.26.84 11.94 2.37 3.84 1.58 7.27 3.9 10.15 6.78a31.5 31.5 0 0 1 6.78 10.14 31.1 31.1 0 0 1 2.37 11.94c0 4.22-.84 8.26-2.37 11.94-1.59 3.83-3.9 7.27-6.78 10.15a31.6 31.6 0 0 1-10.14 6.78c-3.69 1.53-7.72 2.37-11.94 2.37s-8.26-.84-11.94-2.37c-3.83-1.59-7.27-3.9-10.15-6.78a31.23 31.23 0 0 1-9.15-22.09c0-4.22.84-8.25 2.37-11.94 1.59-3.83 3.9-7.27 6.78-10.15a31.5 31.5 0 0 1 10.14-6.78c3.69-1.52 7.71-2.36 11.94-2.36m-3.26 19.1a3.68 3.68 0 0 1 1.07-2.59c.33-.34.74-.61 1.19-.79.44-.18.91-.28 1.4-.28s.96.1 1.4.28c.46.19.86.46 1.19.79s.61.74.79 1.19c.18.43.28.91.28 1.4v13.14l8.28 4.38c.07.04.14.09.21.13.38.25.69.56.94.9.27.37.46.79.57 1.23.11.45.14.93.08 1.4-.06.46-.21.91-.45 1.32l-.09.15-.07.09c-.25.36-.55.67-.88.9-.37.27-.79.46-1.22.57-.45.11-.93.14-1.4.08a3.5 3.5 0 0 1-1.32-.45L90.31 93.1c-.29-.15-.55-.34-.77-.56-.23-.22-.44-.47-.61-.75l-.02-.04c-.17-.28-.3-.57-.39-.88-.09-.32-.14-.65-.14-.99z" style="fill-rule:evenodd;clip-rule:evenodd;fill:#ff7900"/></svg>