<svg version="1.1" id="Layer_1" xmlns="http://www.w3.org/2000/svg" xmlns:xlink="http://www.w3.org/1999/xlink" x="0px" y="0px"
	 width="100%" viewBox="0 0 225 225" enable-background="new 0 0 225 225" xml:space="preserve">
<path fill="#FEFEFD" opacity="1.000000" stroke="none" 
	d="
M226.000000,86.000000 
	C226.000000,133.000000 226.000000,179.500000 226.000000,226.000000 
	C151.000000,226.000000 76.000000,226.000000 1.000000,226.000000 
	C1.000000,151.000000 1.000000,76.000000 1.000000,1.000000 
	C76.000000,1.000000 151.000000,1.000000 226.000000,1.000000 
	C226.000000,29.166666 226.000000,57.333332 226.000000,86.000000 
M38.406643,86.079758 
	C38.366547,92.082855 38.326450,98.085953 37.314182,104.106804 
	C31.579287,104.106804 25.844389,104.106804 20.190228,104.106804 
	C20.190228,110.714821 20.190228,116.606369 20.190228,122.911278 
	C26.422506,122.911278 32.354782,122.911278 38.480499,123.847969 
	C38.406784,129.839096 38.333073,135.830215 37.290508,141.834061 
	C31.568510,141.834061 25.846510,141.834061 20.175491,141.834061 
	C20.175491,148.320129 20.175491,154.046844 20.175491,160.222305 
	C26.374371,160.222305 32.300049,160.222305 38.308475,160.706009 
	C38.504681,161.151886 38.700886,161.597763 38.701866,162.949112 
	C38.688271,164.929291 38.627460,166.910446 38.668804,168.889465 
	C38.921108,180.966431 46.043079,188.046814 58.213211,188.369217 
	C60.845627,188.438980 63.476582,188.564087 66.535332,189.245453 
	C66.535332,195.119904 66.535332,200.994354 66.535332,206.787903 
	C73.322227,206.787903 79.053833,206.787903 85.192680,206.787903 
	C85.192680,200.553711 85.192680,194.612137 86.083458,188.489334 
	C92.072701,188.558456 98.061943,188.627563 104.071106,189.520187 
	C104.071106,195.250793 104.071106,200.981384 104.071106,206.774597 
	C110.612831,206.774597 116.615028,206.774597 122.948952,206.774597 
	C122.948952,200.537140 122.948952,194.616776 123.860786,188.463852 
	C129.843338,188.533279 135.825882,188.602707 141.827972,189.500000 
	C141.827972,195.256607 141.827972,201.013214 141.827972,206.812103 
	C148.259552,206.812103 154.006058,206.812103 160.043091,206.812103 
	C160.043091,200.591888 160.043091,194.640366 160.937210,188.451447 
	C164.083359,188.401611 167.235001,188.453049 170.374664,188.283417 
	C180.822449,187.718918 187.806198,180.629761 188.303329,170.163712 
	C188.460083,166.863541 188.570358,163.561188 189.523895,160.220215 
	C195.274597,160.220215 201.025314,160.220215 206.839355,160.220215 
	C206.839355,153.782288 206.839355,148.039368 206.839355,141.821091 
	C200.635376,141.821091 194.687973,141.821091 188.593689,140.920151 
	C188.633759,134.917114 188.673828,128.914062 189.686020,122.893204 
	C195.420868,122.893204 201.155716,122.893204 206.809814,122.893204 
	C206.809814,116.285172 206.809814,110.393661 206.809814,104.088638 
	C200.577484,104.088638 194.645340,104.088638 188.519852,103.151955 
	C188.593521,97.160896 188.667206,91.169830 189.709717,85.165962 
	C195.431656,85.165962 201.153595,85.165962 206.824524,85.165962 
	C206.824524,78.679848 206.824524,72.953163 206.824524,66.777565 
	C200.626328,66.777565 194.700409,66.777565 188.691772,66.293884 
	C188.495544,65.848045 188.299301,65.402214 188.298187,64.050850 
	C188.257416,61.061073 188.393997,58.056324 188.143112,55.084286 
	C187.342209,45.596775 180.131744,39.456852 170.657516,39.581573 
	C167.125549,39.628071 163.581558,38.761200 160.160736,37.492882 
	C160.160736,31.737925 160.160736,25.982967 160.160736,20.190561 
	C153.754715,20.190561 148.008896,20.190561 141.808044,20.190561 
	C141.808044,26.415976 141.808044,32.372196 140.917313,38.510395 
	C134.927811,38.441376 128.938309,38.372356 122.928886,37.479813 
	C122.928886,31.749208 122.928886,26.018604 122.928886,20.225399 
	C116.387169,20.225399 110.384964,20.225399 104.051048,20.225399 
	C104.051048,26.462870 104.051048,32.383240 103.139214,38.536175 
	C97.156898,38.467064 91.174591,38.397957 85.172470,37.500824 
	C85.172470,31.765404 85.172470,26.029985 85.172470,20.285789 
	C78.707222,20.285789 72.857903,20.285789 67.164696,20.285789 
	C66.797417,26.556273 66.452393,32.446671 65.249367,38.549503 
	C61.986801,38.942616 58.730343,39.601536 55.460468,39.676693 
	C47.181488,39.866982 40.354645,45.071491 39.133770,53.036030 
	C38.536663,56.931381 38.944157,60.980728 38.618130,65.364601 
	C38.487263,65.835670 38.356396,66.306732 37.260983,66.788048 
	C31.544115,66.788048 25.827246,66.788048 20.185810,66.788048 
	C20.185810,73.308815 20.185810,79.033737 20.185810,85.178802 
	C26.399954,85.178802 32.329800,85.178802 38.406643,86.079758 
z"/>
<path fill="#4CAF50" opacity="1.000000" stroke="none" 
	d="
M141.808441,188.672134 
	C135.825882,188.602707 129.843338,188.533279 122.963547,188.437714 
	C116.061264,188.506592 110.056229,188.601639 104.051186,188.696671 
	C98.061943,188.627563 92.072701,188.558456 85.174133,188.446991 
	C78.212608,188.491013 72.160408,188.577362 66.108208,188.663712 
	C63.476582,188.564087 60.845627,188.438980 58.213211,188.369217 
	C46.043079,188.046814 38.921108,180.966431 38.668804,168.889465 
	C38.627460,166.910446 38.688271,164.929291 39.047550,162.337601 
	C39.197182,161.110275 39.001133,160.494446 38.765793,159.419830 
	C38.754581,153.349808 38.782658,147.738586 39.136902,141.840759 
	C39.231533,135.300964 39.000000,129.047806 38.739956,122.340256 
	C38.730534,115.992317 38.749626,110.098770 39.096947,103.907997 
	C39.220345,97.364906 39.015518,91.119041 38.769333,84.414825 
	C38.753700,78.345009 38.779423,72.733551 39.058304,66.966675 
	C39.173290,66.194298 39.035122,65.577339 38.896957,64.960373 
	C38.944157,60.980728 38.536663,56.931381 39.133770,53.036030 
	C40.354645,45.071491 47.181488,39.866982 55.460468,39.676693 
	C58.730343,39.601536 61.986801,38.942616 66.113297,38.580067 
	C73.048912,38.516701 79.120598,38.422775 85.192276,38.328850 
	C91.174591,38.397957 97.156898,38.467064 104.036453,38.562309 
	C110.938728,38.493408 116.943771,38.398373 122.948807,38.303341 
	C128.938309,38.372356 134.927811,38.441376 141.826324,38.552334 
	C148.504562,38.499786 154.273819,38.405300 160.043060,38.310814 
	C163.581558,38.761200 167.125549,39.628071 170.657516,39.581573 
	C180.131744,39.456852 187.342209,45.596775 188.143112,55.084286 
	C188.393997,58.056324 188.257416,61.061073 187.952530,64.662369 
	C187.802902,65.889778 187.998917,66.505676 188.234192,67.580383 
	C188.245407,73.650238 188.217331,79.261307 187.863129,85.159065 
	C187.768494,91.699066 187.999985,97.952377 188.260010,104.660049 
	C188.269440,111.007767 188.250336,116.901115 187.903046,123.091789 
	C187.779663,129.635101 187.984467,135.881104 188.230652,142.585815 
	C188.415314,148.782974 188.558609,154.521393 188.701904,160.259827 
	C188.570358,163.561188 188.460083,166.863541 188.303329,170.163712 
	C187.806198,180.629761 180.822449,187.718918 170.374664,188.283417 
	C167.235001,188.453049 164.083359,188.401611 160.037415,188.429108 
	C153.361221,188.495209 147.584839,188.583679 141.808441,188.672134 
M121.500000,146.073593 
	C129.155319,146.073364 136.810699,146.088699 144.465958,146.068542 
	C152.287018,146.047958 155.865433,142.639481 155.899231,134.953415 
	C155.962158,120.641556 155.962204,106.329018 155.898895,92.017166 
	C155.865723,84.515274 152.293365,80.945091 144.945312,80.936287 
	C123.976410,80.911186 103.007416,80.910881 82.038506,80.936478 
	C74.695145,80.945442 71.133400,84.517822 71.100761,92.033272 
	C71.038597,106.345139 71.037140,120.657677 71.101112,134.969528 
	C71.135353,142.630157 74.738091,146.056061 82.556206,146.067841 
	C95.204109,146.086884 107.852066,146.073441 121.500000,146.073593 
z"/>
<path fill="#FB9907" opacity="1.000000" stroke="none" 
	d="
M122.938843,37.891579 
	C116.943771,38.398373 110.938728,38.493408 104.492371,38.446026 
	C104.051048,32.383240 104.051048,26.462870 104.051048,20.225399 
	C110.384964,20.225399 116.387169,20.225399 122.928886,20.225399 
	C122.928886,26.018604 122.928886,31.749208 122.938843,37.891579 
z"/>
<path fill="#FB9907" opacity="1.000000" stroke="none" 
	d="
M104.061142,189.108429 
	C110.056229,188.601639 116.061264,188.506592 122.507629,188.553986 
	C122.948952,194.616776 122.948952,200.537140 122.948952,206.774597 
	C116.615028,206.774597 110.612831,206.774597 104.071106,206.774597 
	C104.071106,200.981384 104.071106,195.250793 104.061142,189.108429 
z"/>
<path fill="#FB9A08" opacity="1.000000" stroke="none" 
	d="
M188.231232,122.794472 
	C188.250336,116.901115 188.269440,111.007767 188.383392,104.643509 
	C188.478226,104.172600 188.713196,104.088638 188.713196,104.088638 
	C194.645340,104.088638 200.577484,104.088638 206.809814,104.088638 
	C206.809814,110.393661 206.809814,116.285172 206.809814,122.893204 
	C201.155716,122.893204 195.420868,122.893204 189.082352,122.860001 
	C188.478683,122.826805 188.231216,122.794472 188.231232,122.794472 
z"/>
<path fill="#FB9A08" opacity="1.000000" stroke="none" 
	d="
M38.768719,104.205223 
	C38.749626,110.098770 38.730534,115.992317 38.616661,122.356705 
	C38.521881,122.827553 38.287056,122.911278 38.287056,122.911278 
	C32.354782,122.911278 26.422506,122.911278 20.190228,122.911278 
	C20.190228,116.606369 20.190228,110.714821 20.190228,104.106804 
	C25.844389,104.106804 31.579287,104.106804 37.917801,104.139923 
	C38.521420,104.173050 38.768719,104.205223 38.768719,104.205223 
z"/>
<path fill="#FA9803" opacity="1.000000" stroke="none" 
	d="
M85.182373,37.914833 
	C79.120598,38.422775 73.048912,38.516701 66.542305,38.473846 
	C66.452393,32.446671 66.797417,26.556273 67.164696,20.285789 
	C72.857903,20.285789 78.707222,20.285789 85.172470,20.285789 
	C85.172470,26.029985 85.172470,31.765404 85.182373,37.914833 
z"/>
<path fill="#FA9803" opacity="1.000000" stroke="none" 
	d="
M66.321770,188.954590 
	C72.160408,188.577362 78.212608,188.491013 84.728745,188.537628 
	C85.192680,194.612137 85.192680,200.553711 85.192680,206.787903 
	C79.053833,206.787903 73.322227,206.787903 66.535332,206.787903 
	C66.535332,200.994354 66.535332,195.119904 66.321770,188.954590 
z"/>
<path fill="#FB9803" opacity="1.000000" stroke="none" 
	d="
M141.818207,189.086060 
	C147.584839,188.583679 153.361221,188.495209 159.590363,188.547791 
	C160.043091,194.640366 160.043091,200.591888 160.043091,206.812103 
	C154.006058,206.812103 148.259552,206.812103 141.827972,206.812103 
	C141.827972,201.013214 141.827972,195.256607 141.818207,189.086060 
z"/>
<path fill="#FB9803" opacity="1.000000" stroke="none" 
	d="
M189.112900,160.240021 
	C188.558609,154.521393 188.415314,148.782974 188.379807,142.529938 
	C188.487579,142.015350 188.740585,141.821091 188.740585,141.821091 
	C194.687973,141.821091 200.635376,141.821091 206.839355,141.821091 
	C206.839355,148.039368 206.839355,153.782288 206.839355,160.220215 
	C201.025314,160.220215 195.274597,160.220215 189.112900,160.240021 
z"/>
<path fill="#FB9803" opacity="1.000000" stroke="none" 
	d="
M38.810738,142.127380 
	C38.782658,147.738586 38.754581,153.349808 38.607727,159.483246 
	C38.488945,160.005478 38.225727,160.222305 38.225727,160.222305 
	C32.300049,160.222305 26.374371,160.222305 20.175491,160.222305 
	C20.175491,154.046844 20.175491,148.320129 20.175491,141.834061 
	C25.846510,141.834061 31.568510,141.834061 37.900574,141.925293 
	C38.510643,142.016510 38.810738,142.127380 38.810738,142.127380 
z"/>
<path fill="#FB9803" opacity="1.000000" stroke="none" 
	d="
M188.189270,84.872368 
	C188.217331,79.261307 188.245407,73.650238 188.392334,67.516891 
	C188.511215,66.994598 188.774490,66.777565 188.774490,66.777565 
	C194.700409,66.777565 200.626328,66.777565 206.824524,66.777565 
	C206.824524,72.953163 206.824524,78.679848 206.824524,85.165962 
	C201.153595,85.165962 195.431656,85.165962 189.099609,85.074684 
	C188.489502,84.983406 188.189270,84.872368 188.189270,84.872368 
z"/>
<path fill="#FB9803" opacity="1.000000" stroke="none" 
	d="
M38.805149,67.122086 
	C38.779423,72.733551 38.753700,78.345009 38.620266,84.470619 
	C38.512558,84.984764 38.259647,85.178802 38.259647,85.178802 
	C32.329800,85.178802 26.399954,85.178802 20.185810,85.178802 
	C20.185810,79.033737 20.185810,73.308815 20.185810,66.788048 
	C25.827246,66.788048 31.544115,66.788048 37.873962,66.892052 
	C38.486938,66.996056 38.805149,67.122086 38.805149,67.122086 
z"/>
<path fill="#FB9803" opacity="1.000000" stroke="none" 
	d="
M160.101898,37.901848 
	C154.273819,38.405300 148.504562,38.499786 142.271683,38.461346 
	C141.808044,32.372196 141.808044,26.415976 141.808044,20.190561 
	C148.008896,20.190561 153.754715,20.190561 160.160736,20.190561 
	C160.160736,25.982967 160.160736,31.737925 160.101898,37.901848 
z"/>
<path fill="#47AF4F" opacity="1.000000" stroke="none" 
	d="
M187.863129,85.159065 
	C188.189270,84.872368 188.489502,84.983406 188.615204,85.081085 
	C188.667206,91.169830 188.593521,97.160896 188.616516,103.620300 
	C188.713196,104.088638 188.478226,104.172600 188.354843,104.189140 
	C187.999985,97.952377 187.768494,91.699066 187.863129,85.159065 
z"/>
<path fill="#47AF4F" opacity="1.000000" stroke="none" 
	d="
M39.136902,141.840759 
	C38.810738,142.127380 38.510643,142.016510 38.385002,141.918915 
	C38.333073,135.830215 38.406784,129.839096 38.383778,123.379623 
	C38.287056,122.911278 38.521881,122.827553 38.645172,122.811096 
	C39.000000,129.047806 39.231533,135.300964 39.136902,141.840759 
z"/>
<path fill="#47AF4F" opacity="1.000000" stroke="none" 
	d="
M188.667145,141.370621 
	C188.740585,141.821091 188.487579,142.015350 188.338425,142.071228 
	C187.984467,135.881104 187.779663,129.635101 187.903046,123.091789 
	C188.231216,122.794472 188.478683,122.826805 188.596283,122.868912 
	C188.673828,128.914062 188.633759,134.917114 188.667145,141.370621 
z"/>
<path fill="#47AF4F" opacity="1.000000" stroke="none" 
	d="
M38.333145,85.629280 
	C38.259647,85.178802 38.512558,84.984764 38.661621,84.928970 
	C39.015518,91.119041 39.220345,97.364906 39.096947,103.907997 
	C38.768719,104.205223 38.521420,104.173050 38.403885,104.131050 
	C38.326450,98.085953 38.366547,92.082855 38.333145,85.629280 
z"/>
<path fill="#47AF4F" opacity="1.000000" stroke="none" 
	d="
M38.267101,160.464157 
	C38.225727,160.222305 38.488945,160.005478 38.647015,159.942047 
	C39.001133,160.494446 39.197182,161.110275 39.145164,161.884857 
	C38.700886,161.597763 38.504681,161.151886 38.267101,160.464157 
z"/>
<path fill="#47AF4F" opacity="1.000000" stroke="none" 
	d="
M188.733124,66.535721 
	C188.774490,66.777565 188.511215,66.994598 188.353073,67.058090 
	C187.998917,66.505676 187.802902,65.889778 187.854965,65.115128 
	C188.299301,65.402214 188.495544,65.848045 188.733124,66.535721 
z"/>
<path fill="#47AF4F" opacity="1.000000" stroke="none" 
	d="
M39.058304,66.966675 
	C38.805149,67.122086 38.486938,66.996056 38.356232,66.886932 
	C38.356396,66.306732 38.487263,65.835670 38.757545,65.162491 
	C39.035122,65.577339 39.173290,66.194298 39.058304,66.966675 
z"/>
<path fill="#37484F" opacity="1.000000" stroke="none" 
	d="
M121.000000,146.073669 
	C107.852066,146.073441 95.204109,146.086884 82.556206,146.067841 
	C74.738091,146.056061 71.135353,142.630157 71.101112,134.969528 
	C71.037140,120.657677 71.038597,106.345139 71.100761,92.033272 
	C71.133400,84.517822 74.695145,80.945442 82.038506,80.936478 
	C103.007416,80.910881 123.976410,80.911186 144.945312,80.936287 
	C152.293365,80.945091 155.865723,84.515274 155.898895,92.017166 
	C155.962204,106.329018 155.962158,120.641556 155.899231,134.953415 
	C155.865433,142.639481 152.287018,146.047958 144.465958,146.068542 
	C136.810699,146.088699 129.155319,146.073364 121.000000,146.073669 
z"/>
</svg>